<?xml version="1.0" encoding="UTF-8"?>
<!DOCTYPE svg PUBLIC "-//W3C//DTD SVG 1.1//EN" "http://www.w3.org/Graphics/SVG/1.1/DTD/svg11.dtd">
<!-- Creator: CorelDRAW 2018 (64-Bit) -->
<svg xmlns="http://www.w3.org/2000/svg" xml:space="preserve" width="50px" height="50px" version="1.1" shape-rendering="geometricPrecision" text-rendering="geometricPrecision" image-rendering="optimizeQuality" fill-rule="evenodd" clip-rule="evenodd"
viewBox="0 0 50 50"
 xmlns:xlink="http://www.w3.org/1999/xlink"
 enable-background="new 0 0 64 64">
 <g id="Layer_x0020_1">
  <metadata id="CorelCorpID_0Corel-Layer"/>
  <path fill="#61C5B8" d="M13.93 18.32c-0.21,-0.4 -0.71,-0.54 -1.1,-0.33 -0.4,0.21 -0.54,0.71 -0.33,1.1l12.2 22.43c0.14,0.26 0.41,0.42 0.71,0.42 0,0 0,0 0,0 0.3,0 0.57,-0.16 0.71,-0.42l21.68 -40.32c0.21,-0.4 0.06,-0.89 -0.33,-1.1 -0.4,-0.21 -0.89,-0.07 -1.1,0.33l-20.96 39 -11.48 -21.11z"/>
  <path fill="#61C5B8" d="M48.7 13.32c-0.45,0 -0.81,0.36 -0.81,0.8l0 23.38c0,6.01 -4.88,10.89 -10.89,10.89l-23.38 0c-6.01,0 -10.89,-4.88 -10.89,-10.89l0 -23.38c0,-6 4.88,-10.89 10.89,-10.89l23.38 0c0.45,0 0.81,-0.36 0.81,-0.8 0,-0.45 -0.36,-0.81 -0.81,-0.81l-23.38 0c-6.89,0 -12.5,5.61 -12.5,12.5l0 23.38c0,6.9 5.61,12.5 12.5,12.5l23.38 0c6.89,0 12.5,-5.6 12.5,-12.5l0 -23.38c0,-0.44 -0.36,-0.8 -0.8,-0.8z"/>
 </g>
</svg>
