<?xml version="1.0" encoding="UTF-8"?>
<!DOCTYPE svg PUBLIC "-//W3C//DTD SVG 1.1//EN" "http://www.w3.org/Graphics/SVG/1.1/DTD/svg11.dtd">
<!-- Creator: CorelDRAW 2018 (64-Bit) -->
<svg xmlns="http://www.w3.org/2000/svg" xml:space="preserve" width="30px" height="30px" version="1.1" shape-rendering="geometricPrecision" text-rendering="geometricPrecision" image-rendering="optimizeQuality" fill-rule="evenodd" clip-rule="evenodd"
viewBox="0 0 30 30"
 xmlns:xlink="http://www.w3.org/1999/xlink">
 <g id="Layer_x0020_1">
  <metadata id="CorelCorpID_0Corel-Layer"/>
  <path fill="#0D6EFD" d="M15 0c8.28,0 15,6.72 15,15 0,8.28 -6.72,15 -15,15 -8.28,0 -15,-6.72 -15,-15 0,-8.28 6.72,-15 15,-15z"/>
  <path fill="white" d="M16.83 10.33l1.93 0 0 -2.86 -2.27 0 0 0.01c-2.76,0.1 -3.32,1.65 -3.37,3.27l-0.01 0 0 1.43 -1.87 0 0 2.8 1.87 0 0 7.49 2.83 0 0 -7.5 2.31 0.01 0.45 -2.8 -2.76 0 0 -0.86c0,-0.55 0.37,-0.99 0.89,-0.99l0 0 0 0z"/>
 </g>
</svg>
