<?xml version="1.0" encoding="UTF-8"?>
<!DOCTYPE svg PUBLIC "-//W3C//DTD SVG 1.1//EN" "http://www.w3.org/Graphics/SVG/1.1/DTD/svg11.dtd">
<!-- Creator: CorelDRAW 2018 (64-Bit) -->
<svg xmlns="http://www.w3.org/2000/svg" xml:space="preserve" width="30px" height="30px" version="1.1" shape-rendering="geometricPrecision" text-rendering="geometricPrecision" image-rendering="optimizeQuality" fill-rule="evenodd" clip-rule="evenodd"
viewBox="0 0 30 30"
 xmlns:xlink="http://www.w3.org/1999/xlink">
 <g id="Layer_x0020_1">
  <metadata id="CorelCorpID_0Corel-Layer"/>
  <path fill="#0D6EFD" d="M15 0c8.28,0 15,6.72 15,15 0,8.28 -6.72,15 -15,15 -8.28,0 -15,-6.72 -15,-15 0,-8.28 6.72,-15 15,-15z"/>
  <path fill="white" d="M20.18 6.56l-10.36 0c-1.8,0 -3.26,1.46 -3.26,3.26l0 10.36c0,1.8 1.46,3.26 3.26,3.26l10.36 0c1.8,0 3.26,-1.46 3.26,-3.26l0 -10.36c0,-1.8 -1.46,-3.26 -3.26,-3.26zm1.02 1.89l0.37 0 0 2.8 -2.82 0.01 -0.01 -2.8c0,0 2.46,-0.01 2.46,-0.01l0 0zm-6.2 3.73c2.34,0 2.82,2.19 2.82,2.82 0,1.56 -1.26,2.82 -2.82,2.82 -1.56,0 -2.82,-1.26 -2.82,-2.82 -0.01,-0.63 0.48,-2.82 2.82,-2.82zm6.59 7.79c0,0.9 -0.73,1.62 -1.62,1.62l-9.97 0c-0.9,0 -1.62,-0.72 -1.62,-1.62l0 -6.85 2.34 0c-0.22,0.54 -0.34,1.27 -0.34,1.88 0,2.54 2.07,4.62 4.62,4.62 2.54,0 4.61,-2.07 4.61,-4.62 0,-0.61 -0.12,-1.34 -0.34,-1.88l2.32 0 0 6.85 0 0 0 0z"/>
 </g>
</svg>
